<mxfile host="app.diagrams.net" agent="Mozilla/5.0 (Windows NT 10.0; Win64; x64) AppleWebKit/537.36 (KHTML, like Gecko) Chrome/133.0.0.0 Safari/537.36 Edg/133.0.0.0" version="26.0.16">
  <diagram name="Page-1" id="XkfUc-QbW5OmTONoCZtb">
    <mxGraphModel dx="1509" dy="792" grid="1" gridSize="10" guides="1" tooltips="1" connect="1" arrows="1" fold="1" page="1" pageScale="1" pageWidth="827" pageHeight="1169" math="0" shadow="0">
      <root>
        <mxCell id="0" />
        <mxCell id="1" parent="0" />
        <mxCell id="t_TXbkM6ya3k8fRRpUf7-42" value="user" style="swimlane;fontStyle=1;childLayout=stackLayout;horizontal=1;startSize=26;horizontalStack=0;resizeParent=1;resizeParentMax=0;resizeLast=0;collapsible=1;marginBottom=0;align=center;fontSize=14;" vertex="1" parent="1">
          <mxGeometry x="20" y="50" width="340" height="266" as="geometry" />
        </mxCell>
        <mxCell id="t_TXbkM6ya3k8fRRpUf7-43" value="username VARCHAR(50) NOT NULL PRIMARY KEY" style="text;strokeColor=none;fillColor=none;spacingLeft=4;spacingRight=4;overflow=hidden;rotatable=0;points=[[0,0.5],[1,0.5]];portConstraint=eastwest;fontSize=12;whiteSpace=wrap;html=1;" vertex="1" parent="t_TXbkM6ya3k8fRRpUf7-42">
          <mxGeometry y="26" width="340" height="30" as="geometry" />
        </mxCell>
        <mxCell id="t_TXbkM6ya3k8fRRpUf7-44" value="display_name VARCHAR(50) NOT NULL" style="text;strokeColor=none;fillColor=none;spacingLeft=4;spacingRight=4;overflow=hidden;rotatable=0;points=[[0,0.5],[1,0.5]];portConstraint=eastwest;fontSize=12;whiteSpace=wrap;html=1;" vertex="1" parent="t_TXbkM6ya3k8fRRpUf7-42">
          <mxGeometry y="56" width="340" height="30" as="geometry" />
        </mxCell>
        <mxCell id="t_TXbkM6ya3k8fRRpUf7-45" value="form_group VARCHAR(10) NOT NULL" style="text;strokeColor=none;fillColor=none;spacingLeft=4;spacingRight=4;overflow=hidden;rotatable=0;points=[[0,0.5],[1,0.5]];portConstraint=eastwest;fontSize=12;whiteSpace=wrap;html=1;" vertex="1" parent="t_TXbkM6ya3k8fRRpUf7-42">
          <mxGeometry y="86" width="340" height="30" as="geometry" />
        </mxCell>
        <mxCell id="t_TXbkM6ya3k8fRRpUf7-46" value="datetime_joined DATETIME NOT NULL DEFAULT CURRENT_TIMESTAMP" style="text;strokeColor=none;fillColor=none;spacingLeft=4;spacingRight=4;overflow=hidden;rotatable=0;points=[[0,0.5],[1,0.5]];portConstraint=eastwest;fontSize=12;whiteSpace=wrap;html=1;" vertex="1" parent="t_TXbkM6ya3k8fRRpUf7-42">
          <mxGeometry y="116" width="340" height="30" as="geometry" />
        </mxCell>
        <mxCell id="t_TXbkM6ya3k8fRRpUf7-47" value="password_hash VARCHAR(500) NOT NULL" style="text;strokeColor=none;fillColor=none;spacingLeft=4;spacingRight=4;overflow=hidden;rotatable=0;points=[[0,0.5],[1,0.5]];portConstraint=eastwest;fontSize=12;whiteSpace=wrap;html=1;" vertex="1" parent="t_TXbkM6ya3k8fRRpUf7-42">
          <mxGeometry y="146" width="340" height="30" as="geometry" />
        </mxCell>
        <mxCell id="t_TXbkM6ya3k8fRRpUf7-50" value="is_authenticated BOOLEAN NOT NULL DEFAULT FALSE" style="text;strokeColor=none;fillColor=none;spacingLeft=4;spacingRight=4;overflow=hidden;rotatable=0;points=[[0,0.5],[1,0.5]];portConstraint=eastwest;fontSize=12;whiteSpace=wrap;html=1;" vertex="1" parent="t_TXbkM6ya3k8fRRpUf7-42">
          <mxGeometry y="176" width="340" height="30" as="geometry" />
        </mxCell>
        <mxCell id="t_TXbkM6ya3k8fRRpUf7-52" value="is_active BOOLEAN NOT NULL DEFAULT TRUE" style="text;strokeColor=none;fillColor=none;spacingLeft=4;spacingRight=4;overflow=hidden;rotatable=0;points=[[0,0.5],[1,0.5]];portConstraint=eastwest;fontSize=12;whiteSpace=wrap;html=1;" vertex="1" parent="t_TXbkM6ya3k8fRRpUf7-42">
          <mxGeometry y="206" width="340" height="30" as="geometry" />
        </mxCell>
        <mxCell id="t_TXbkM6ya3k8fRRpUf7-51" value="is_anonymous BOOLEAN NOT NULL DEFAULT FALSE" style="text;strokeColor=none;fillColor=none;spacingLeft=4;spacingRight=4;overflow=hidden;rotatable=0;points=[[0,0.5],[1,0.5]];portConstraint=eastwest;fontSize=12;whiteSpace=wrap;html=1;" vertex="1" parent="t_TXbkM6ya3k8fRRpUf7-42">
          <mxGeometry y="236" width="340" height="30" as="geometry" />
        </mxCell>
        <mxCell id="t_TXbkM6ya3k8fRRpUf7-53" value="group" style="swimlane;fontStyle=1;childLayout=stackLayout;horizontal=1;startSize=20;horizontalStack=0;resizeParent=1;resizeParentMax=0;resizeLast=0;collapsible=1;marginBottom=0;align=center;fontSize=14;" vertex="1" parent="1">
          <mxGeometry x="930" y="180" width="440" height="110" as="geometry" />
        </mxCell>
        <mxCell id="t_TXbkM6ya3k8fRRpUf7-54" value="group_id INT NOT NULL PRIMARY KEY AUTO_INCREMENT" style="text;strokeColor=none;fillColor=none;spacingLeft=4;spacingRight=4;overflow=hidden;rotatable=0;points=[[0,0.5],[1,0.5]];portConstraint=eastwest;fontSize=12;whiteSpace=wrap;html=1;align=left;" vertex="1" parent="t_TXbkM6ya3k8fRRpUf7-53">
          <mxGeometry y="20" width="440" height="30" as="geometry" />
        </mxCell>
        <mxCell id="t_TXbkM6ya3k8fRRpUf7-55" value="group_name VARCHAR(50) NOT NULL" style="text;strokeColor=none;fillColor=none;spacingLeft=4;spacingRight=4;overflow=hidden;rotatable=0;points=[[0,0.5],[1,0.5]];portConstraint=eastwest;fontSize=12;whiteSpace=wrap;html=1;" vertex="1" parent="t_TXbkM6ya3k8fRRpUf7-53">
          <mxGeometry y="50" width="440" height="30" as="geometry" />
        </mxCell>
        <mxCell id="t_TXbkM6ya3k8fRRpUf7-56" value="datetime_created DATETIME NOT NULL DEFAULT CURRENT_TIMESTAMP" style="text;strokeColor=none;fillColor=none;spacingLeft=4;spacingRight=4;overflow=hidden;rotatable=0;points=[[0,0.5],[1,0.5]];portConstraint=eastwest;fontSize=12;whiteSpace=wrap;html=1;" vertex="1" parent="t_TXbkM6ya3k8fRRpUf7-53">
          <mxGeometry y="80" width="440" height="30" as="geometry" />
        </mxCell>
        <mxCell id="t_TXbkM6ya3k8fRRpUf7-57" value="user_group" style="swimlane;fontStyle=1;childLayout=stackLayout;horizontal=1;startSize=26;horizontalStack=0;resizeParent=1;resizeParentMax=0;resizeLast=0;collapsible=1;marginBottom=0;align=center;fontSize=14;" vertex="1" parent="1">
          <mxGeometry x="550" y="30" width="320" height="116" as="geometry" />
        </mxCell>
        <mxCell id="t_TXbkM6ya3k8fRRpUf7-58" value="username VARCHAR(50) NOT NULL FK1" style="text;strokeColor=none;fillColor=none;spacingLeft=4;spacingRight=4;overflow=hidden;rotatable=0;points=[[0,0.5],[1,0.5]];portConstraint=eastwest;fontSize=12;whiteSpace=wrap;html=1;" vertex="1" parent="t_TXbkM6ya3k8fRRpUf7-57">
          <mxGeometry y="26" width="320" height="30" as="geometry" />
        </mxCell>
        <mxCell id="t_TXbkM6ya3k8fRRpUf7-59" value="group_id INT NOT NULL FK2" style="text;strokeColor=none;fillColor=none;spacingLeft=4;spacingRight=4;overflow=hidden;rotatable=0;points=[[0,0.5],[1,0.5]];portConstraint=eastwest;fontSize=12;whiteSpace=wrap;html=1;" vertex="1" parent="t_TXbkM6ya3k8fRRpUf7-57">
          <mxGeometry y="56" width="320" height="30" as="geometry" />
        </mxCell>
        <mxCell id="t_TXbkM6ya3k8fRRpUf7-60" value="PRIMARY KEY (username, group_id)" style="text;strokeColor=none;fillColor=none;spacingLeft=4;spacingRight=4;overflow=hidden;rotatable=0;points=[[0,0.5],[1,0.5]];portConstraint=eastwest;fontSize=12;whiteSpace=wrap;html=1;" vertex="1" parent="t_TXbkM6ya3k8fRRpUf7-57">
          <mxGeometry y="86" width="320" height="30" as="geometry" />
        </mxCell>
        <mxCell id="t_TXbkM6ya3k8fRRpUf7-61" value="" style="edgeStyle=entityRelationEdgeStyle;fontSize=12;html=1;endArrow=ERoneToMany;rounded=0;exitX=1;exitY=0.5;exitDx=0;exitDy=0;entryX=0;entryY=0.5;entryDx=0;entryDy=0;" edge="1" parent="1" source="t_TXbkM6ya3k8fRRpUf7-43" target="t_TXbkM6ya3k8fRRpUf7-58">
          <mxGeometry width="100" height="100" relative="1" as="geometry">
            <mxPoint x="440" y="400" as="sourcePoint" />
            <mxPoint x="540" y="300" as="targetPoint" />
          </mxGeometry>
        </mxCell>
        <mxCell id="t_TXbkM6ya3k8fRRpUf7-62" value="" style="edgeStyle=entityRelationEdgeStyle;fontSize=12;html=1;endArrow=ERoneToMany;rounded=0;exitX=0;exitY=0.5;exitDx=0;exitDy=0;entryX=1;entryY=0.5;entryDx=0;entryDy=0;" edge="1" parent="1" source="t_TXbkM6ya3k8fRRpUf7-54" target="t_TXbkM6ya3k8fRRpUf7-59">
          <mxGeometry width="100" height="100" relative="1" as="geometry">
            <mxPoint x="1200.000000000001" y="330" as="sourcePoint" />
            <mxPoint x="1100.000000000001" y="230" as="targetPoint" />
            <Array as="points">
              <mxPoint x="710.0000000000009" y="120" />
            </Array>
          </mxGeometry>
        </mxCell>
        <mxCell id="t_TXbkM6ya3k8fRRpUf7-63" value="message" style="swimlane;fontStyle=0;childLayout=stackLayout;horizontal=1;startSize=26;horizontalStack=0;resizeParent=1;resizeParentMax=0;resizeLast=0;collapsible=1;marginBottom=0;align=center;fontSize=14;" vertex="1" parent="1">
          <mxGeometry x="400" y="370" width="450" height="176" as="geometry" />
        </mxCell>
        <mxCell id="t_TXbkM6ya3k8fRRpUf7-64" value="message_id INT NOT NULL PRIMARY KEY AUTO_INCREMENT&lt;div&gt;&lt;br&gt;&lt;/div&gt;" style="text;strokeColor=none;fillColor=none;spacingLeft=4;spacingRight=4;overflow=hidden;rotatable=0;points=[[0,0.5],[1,0.5]];portConstraint=eastwest;fontSize=12;whiteSpace=wrap;html=1;" vertex="1" parent="t_TXbkM6ya3k8fRRpUf7-63">
          <mxGeometry y="26" width="450" height="30" as="geometry" />
        </mxCell>
        <mxCell id="t_TXbkM6ya3k8fRRpUf7-65" value="message_content VARCHAR(2000) NOT NULL" style="text;strokeColor=none;fillColor=none;spacingLeft=4;spacingRight=4;overflow=hidden;rotatable=0;points=[[0,0.5],[1,0.5]];portConstraint=eastwest;fontSize=12;whiteSpace=wrap;html=1;" vertex="1" parent="t_TXbkM6ya3k8fRRpUf7-63">
          <mxGeometry y="56" width="450" height="30" as="geometry" />
        </mxCell>
        <mxCell id="t_TXbkM6ya3k8fRRpUf7-66" value="message_date_time TIMESTAMP NOT NULL DEFAULT CURRENT_TIMESTAMP" style="text;strokeColor=none;fillColor=none;spacingLeft=4;spacingRight=4;overflow=hidden;rotatable=0;points=[[0,0.5],[1,0.5]];portConstraint=eastwest;fontSize=12;whiteSpace=wrap;html=1;" vertex="1" parent="t_TXbkM6ya3k8fRRpUf7-63">
          <mxGeometry y="86" width="450" height="30" as="geometry" />
        </mxCell>
        <mxCell id="t_TXbkM6ya3k8fRRpUf7-67" value="sender_username VARCHAR(50) NOT NULL FK1" style="text;strokeColor=none;fillColor=none;spacingLeft=4;spacingRight=4;overflow=hidden;rotatable=0;points=[[0,0.5],[1,0.5]];portConstraint=eastwest;fontSize=12;whiteSpace=wrap;html=1;" vertex="1" parent="t_TXbkM6ya3k8fRRpUf7-63">
          <mxGeometry y="116" width="450" height="30" as="geometry" />
        </mxCell>
        <mxCell id="t_TXbkM6ya3k8fRRpUf7-68" value="group_id INT NOT NULL FK2" style="text;strokeColor=none;fillColor=none;spacingLeft=4;spacingRight=4;overflow=hidden;rotatable=0;points=[[0,0.5],[1,0.5]];portConstraint=eastwest;fontSize=12;whiteSpace=wrap;html=1;" vertex="1" parent="t_TXbkM6ya3k8fRRpUf7-63">
          <mxGeometry y="146" width="450" height="30" as="geometry" />
        </mxCell>
        <mxCell id="t_TXbkM6ya3k8fRRpUf7-69" value="" style="edgeStyle=entityRelationEdgeStyle;fontSize=12;html=1;endArrow=ERoneToMany;rounded=0;exitX=1;exitY=0.5;exitDx=0;exitDy=0;entryX=0;entryY=0.5;entryDx=0;entryDy=0;" edge="1" parent="1" source="t_TXbkM6ya3k8fRRpUf7-43" target="t_TXbkM6ya3k8fRRpUf7-67">
          <mxGeometry width="100" height="100" relative="1" as="geometry">
            <mxPoint x="700" y="500" as="sourcePoint" />
            <mxPoint x="670" y="420" as="targetPoint" />
            <Array as="points">
              <mxPoint x="620" y="430" />
            </Array>
          </mxGeometry>
        </mxCell>
        <mxCell id="t_TXbkM6ya3k8fRRpUf7-71" value="" style="edgeStyle=entityRelationEdgeStyle;fontSize=12;html=1;endArrow=ERoneToMany;rounded=0;exitX=0;exitY=0.5;exitDx=0;exitDy=0;entryX=1;entryY=0.5;entryDx=0;entryDy=0;" edge="1" parent="1" source="t_TXbkM6ya3k8fRRpUf7-54" target="t_TXbkM6ya3k8fRRpUf7-68">
          <mxGeometry width="100" height="100" relative="1" as="geometry">
            <mxPoint x="700" y="500" as="sourcePoint" />
            <mxPoint x="800" y="400" as="targetPoint" />
          </mxGeometry>
        </mxCell>
        <mxCell id="t_TXbkM6ya3k8fRRpUf7-72" value="invite_request" style="swimlane;fontStyle=1;childLayout=stackLayout;horizontal=1;startSize=26;horizontalStack=0;resizeParent=1;resizeParentMax=0;resizeLast=0;collapsible=1;marginBottom=0;align=center;fontSize=14;" vertex="1" parent="1">
          <mxGeometry x="1000" y="330" width="370" height="220" as="geometry" />
        </mxCell>
        <mxCell id="t_TXbkM6ya3k8fRRpUf7-73" value="request_id INT NOT NULL PRIMARY KEY AUTO_INCREMENT&lt;div&gt;&lt;br&gt;&lt;/div&gt;" style="text;strokeColor=none;fillColor=none;spacingLeft=4;spacingRight=4;overflow=hidden;rotatable=0;points=[[0,0.5],[1,0.5]];portConstraint=eastwest;fontSize=12;whiteSpace=wrap;html=1;" vertex="1" parent="t_TXbkM6ya3k8fRRpUf7-72">
          <mxGeometry y="26" width="370" height="30" as="geometry" />
        </mxCell>
        <mxCell id="t_TXbkM6ya3k8fRRpUf7-74" value="receiver_username VARCHAR(50) NOT NULL FK1" style="text;strokeColor=none;fillColor=none;spacingLeft=4;spacingRight=4;overflow=hidden;rotatable=0;points=[[0,0.5],[1,0.5]];portConstraint=eastwest;fontSize=12;whiteSpace=wrap;html=1;" vertex="1" parent="t_TXbkM6ya3k8fRRpUf7-72">
          <mxGeometry y="56" width="370" height="30" as="geometry" />
        </mxCell>
        <mxCell id="t_TXbkM6ya3k8fRRpUf7-75" value="sender_username VARCHAR(50) NOT NULL FK2" style="text;strokeColor=none;fillColor=none;spacingLeft=4;spacingRight=4;overflow=hidden;rotatable=0;points=[[0,0.5],[1,0.5]];portConstraint=eastwest;fontSize=12;whiteSpace=wrap;html=1;" vertex="1" parent="t_TXbkM6ya3k8fRRpUf7-72">
          <mxGeometry y="86" width="370" height="30" as="geometry" />
        </mxCell>
        <mxCell id="t_TXbkM6ya3k8fRRpUf7-78" value="group_id INT NOT NULL FK3" style="text;strokeColor=none;fillColor=none;spacingLeft=4;spacingRight=4;overflow=hidden;rotatable=0;points=[[0,0.5],[1,0.5]];portConstraint=eastwest;fontSize=12;whiteSpace=wrap;html=1;" vertex="1" parent="t_TXbkM6ya3k8fRRpUf7-72">
          <mxGeometry y="116" width="370" height="30" as="geometry" />
        </mxCell>
        <mxCell id="t_TXbkM6ya3k8fRRpUf7-77" value="status VARCHAR(50) NOT NULL" style="text;strokeColor=none;fillColor=none;spacingLeft=4;spacingRight=4;overflow=hidden;rotatable=0;points=[[0,0.5],[1,0.5]];portConstraint=eastwest;fontSize=12;whiteSpace=wrap;html=1;" vertex="1" parent="t_TXbkM6ya3k8fRRpUf7-72">
          <mxGeometry y="146" width="370" height="30" as="geometry" />
        </mxCell>
        <mxCell id="t_TXbkM6ya3k8fRRpUf7-76" value="request_date_time TIMESTAMP NOT NULL DEFAULT CURRENT_TIMESTAMP" style="text;strokeColor=none;fillColor=none;spacingLeft=4;spacingRight=4;overflow=hidden;rotatable=0;points=[[0,0.5],[1,0.5]];portConstraint=eastwest;fontSize=12;whiteSpace=wrap;html=1;" vertex="1" parent="t_TXbkM6ya3k8fRRpUf7-72">
          <mxGeometry y="176" width="370" height="44" as="geometry" />
        </mxCell>
        <mxCell id="t_TXbkM6ya3k8fRRpUf7-80" value="" style="edgeStyle=entityRelationEdgeStyle;fontSize=12;html=1;endArrow=ERoneToMany;rounded=0;exitX=1;exitY=0.5;exitDx=0;exitDy=0;entryX=0;entryY=0.5;entryDx=0;entryDy=0;" edge="1" parent="1" source="t_TXbkM6ya3k8fRRpUf7-43" target="t_TXbkM6ya3k8fRRpUf7-74">
          <mxGeometry width="100" height="100" relative="1" as="geometry">
            <mxPoint x="720" y="370" as="sourcePoint" />
            <mxPoint x="820" y="270" as="targetPoint" />
            <Array as="points">
              <mxPoint x="670" y="290" />
              <mxPoint x="960" y="500" />
              <mxPoint x="630" y="310" />
            </Array>
          </mxGeometry>
        </mxCell>
        <mxCell id="t_TXbkM6ya3k8fRRpUf7-81" value="" style="edgeStyle=entityRelationEdgeStyle;fontSize=12;html=1;endArrow=ERoneToMany;rounded=0;exitX=1;exitY=0.5;exitDx=0;exitDy=0;entryX=0;entryY=0.5;entryDx=0;entryDy=0;" edge="1" parent="1" source="t_TXbkM6ya3k8fRRpUf7-43" target="t_TXbkM6ya3k8fRRpUf7-75">
          <mxGeometry width="100" height="100" relative="1" as="geometry">
            <mxPoint x="720" y="370" as="sourcePoint" />
            <mxPoint x="820" y="270" as="targetPoint" />
          </mxGeometry>
        </mxCell>
        <mxCell id="t_TXbkM6ya3k8fRRpUf7-83" value="" style="edgeStyle=entityRelationEdgeStyle;fontSize=12;html=1;endArrow=ERoneToMany;rounded=0;exitX=1;exitY=0.5;exitDx=0;exitDy=0;" edge="1" parent="1" source="t_TXbkM6ya3k8fRRpUf7-54" target="t_TXbkM6ya3k8fRRpUf7-78">
          <mxGeometry width="100" height="100" relative="1" as="geometry">
            <mxPoint x="1450" y="450" as="sourcePoint" />
            <mxPoint x="1480" y="560" as="targetPoint" />
          </mxGeometry>
        </mxCell>
      </root>
    </mxGraphModel>
  </diagram>
</mxfile>
